#!OML:ASF F:\VICON\USERDATA\INSTALL\rory3\rory3.ASF
:FULLY-SPECIFIED
:DEGREES
1547
root -5.07961 18.1954 0.918436 197.342 133.039 190.483
lowerback 12.9857 -0.489239 -0.711733
upperback 4.29969 -0.625681 0.434269
thorax -2.75278 -0.274268 0.946
lowerneck -16.0609 4.7388 -7.65479
upperneck 39.8898 11.6184 -1.21449
head 16.9322 3.71579 3.01277
rclavicle -2.5842e-014 3.18055e-015
rhumerus -30.1436 4.99927 -79.4903
rradius 54.8511
rwrist 14.1835
rhand -25.6884 3.65386
rfingers 7.12502
rthumb 0.846701 -26.3242
lclavicle -2.5842e-014 3.18055e-015
lhumerus -18.8723 9.64981 78.6408
lradius 23.5695
lwrist -28.9208
lhand -25.0443 33.3665
lfingers 7.12502
lthumb 1.46877 63.3412
rfemur -27.0063 3.60468 16.5945
rtibia 27.6359
rfoot -4.12383 0.860833
rtoes 16.7382
lfemur -85.3762 6.7827 -25.8046
ltibia 97.3678
lfoot 4.47455 -4.8598
ltoes -16.7411
1548
root -5.03341 18.2052 0.898789 197.72 133.542 191.089
lowerback 13.0214 -0.491566 -0.713414
upperback 4.39724 -0.62827 0.399731
thorax -2.67048 -0.275312 0.911089
lowerneck -16.0561 4.67482 -7.70101
upperneck 39.7831 11.5909 -1.40812
head 16.8957 3.67595 2.92723
rclavicle 3.97569e-016 3.10104e-014
rhumerus -30.1979 4.92787 -79.1687
rradius 54.8011
rwrist 14.2362
rhand -25.6128 3.58319
rfingers 7.12502
rthumb 0.919666 -26.3946
lclavicle 3.97569e-016 3.10104e-014
lhumerus -18.8982 9.53911 78.8281
lradius 23.7197
lwrist -28.7582
lhand -24.9863 33.3654
lfingers 7.12502
lthumb 1.52482 63.3397
rfemur -27.2208 3.92742 15.8606
rtibia 28.227
rfoot -4.35428 0.906749
rtoes 15.6488
lfemur -85.678 7.18354 -25.9216
ltibia 96.334
lfoot 5.46521 -4.68745
ltoes -15.5744
1549
root -4.98512 18.2133 0.878943 198.032 134.086 191.632
lowerback 13.1385 -0.509853 -0.594412
upperback 4.42167 -0.640294 0.321834
thorax -2.71052 -0.280127 0.765685
lowerneck -15.9705 4.63477 -7.79901
upperneck 39.7159 11.5554 -1.4627
head 16.8403 3.64644 2.90611
rclavicle 4.77083e-015 3.02153e-014
rhumerus -30.3506 4.88267 -78.9155
rradius 54.709
rwrist 14.2617
rhand -25.6202 3.49071
rfingers 7.12502
rthumb 0.912529 -26.4871
lclavicle 4.77083e-015 3.02153e-014
lhumerus -19.0589 9.4729 78.906
lradius 23.8185
lwrist -28.767
lhand -24.9574 32.4663
lfingers 7.12502
lthumb 1.55275 62.4404
rfemur -27.4199 4.20314 15.1726
rtibia 28.8291
rfoot -4.48897 0.996441
rtoes 15.6017
lfemur -85.8485 7.54821 -25.9572
ltibia 95.2438
lfoot 6.15669 -4.68415
ltoes -14.755
1550
root -4.93821 18.2062 0.846693 198.596 134.6 192.326
lowerback 13.2787 -0.564821 -0.460265
upperback 4.36107 -0.701037 0.228187
thorax -2.85174 -0.309143 0.603591
lowerneck -16.0638 4.62383 -8.05065
upperneck 39.8394 11.6175 -1.38017
head 16.905 3.63598 3.00379
rclavicle -2.78299e-015 -1.11319e-014
rhumerus -30.461 4.88064 -78.6261
rradius 54.5103
rwrist 14.3444
rhand -25.7516 3.48294
rfingers 7.12502
rthumb 0.785625 -26.4954
lclavicle -2.78299e-015 -1.11319e-014
lhumerus -19.0849 9.37612 78.9954
lradius 23.7057
lwrist -28.7327
lhand -24.8907 31.8346
lfingers 7.12502
lthumb 1.61715 61.8082
rfemur -27.8576 4.34144 14.3506
rtibia 29.4443
rfoot -4.6112 1.03339
rtoes 15.2972
lfemur -86.149 7.61935 -26.0277
ltibia 94.16
lfoot 5.74725 -5.84385
ltoes -19.3615
1551
root -4.89817 18.1956 0.825663 199.162 134.863 193.139
lowerback 13.3842 -0.661467 -0.528664
upperback 4.38346 -0.835914 0.23093
thorax -2.88241 -0.375355 0.66694
lowerneck -16.4416 4.60171 -8.58473
upperneck 40.2062 11.7136 -0.993079
head 17.1202 3.61525 3.3124
rclavicle 4.77083e-015 2.06736e-014
rhumerus -30.5721 4.79247 -78.2675
rradius 54.4185
rwrist 14.3909
rhand -25.6532 3.50225
rfingers 7.12502
rthumb 0.880736 -26.4757
lclavicle 4.77083e-015 2.06736e-014
lhumerus -19.1306 8.98854 79.2172
lradius 23.7218
lwrist -28.3772
lhand -24.6656 31.2312
lfingers 7.12502
lthumb 1.83455 61.203
rfemur -28.1141 4.45989 13.5177
rtibia 30.0427
rfoot -5.00553 0.916068
rtoes 15.108
lfemur -86.2253 7.53895 -26.0107
ltibia 93.1302
lfoot 6.04592 -5.99177
ltoes -19.7547
1552
root -4.85876 18.191 0.803143 199.588 135.125 193.802
lowerback 13.4813 -0.756412 -0.482916
upperback 4.42389 -0.9527 0.251374
thorax -2.89126 -0.432416 0.681579
lowerneck -16.0562 4.56341 -8.39309
upperneck 39.7994 11.6559 -1.46572
head 16.8721 3.59332 3.02749
rclavicle -3.4191e-014 -4.77083e-014
rhumerus -30.6662 4.78284 -77.8995
rradius 54.2972
rwrist 14.3
rhand -25.4619 3.36996
rfingers 7.12502
rthumb 1.06544 -26.6071
lclavicle -3.4191e-014 -4.77083e-014
lhumerus -19.3054 8.41927 79.4394
lradius 23.8373
lwrist -27.8069
lhand -24.8004 29.6969
lfingers 7.12502
lthumb 1.70433 59.6698
rfemur -28.3536 4.56111 12.7825
rtibia 30.6682
rfoot -5.42443 0.936644
rtoes 14.9981
lfemur -86.2567 7.48392 -25.8363
ltibia 92.1341
lfoot 6.58102 -5.84143
ltoes -18.2341
1553
root -4.8208 18.1947 0.781588 199.863 135.4 194.477
lowerback 13.7141 -0.831757 -0.45016
upperback 4.50595 -1.04399 0.264119
thorax -2.93008 -0.47597 0.693471
lowerneck -15.9611 4.51374 -8.42532
upperneck 39.652 11.6151 -1.63422
head 16.7893 3.56128 2.94222
rclavicle -7.15625e-015 -1.43125e-014
rhumerus -30.7494 4.789 -77.5063
rradius 54.1255
rwrist 14.2638
rhand -25.3552 3.31802
rfingers 7.12502
rthumb 1.16849 -26.6585
lclavicle -7.15625e-015 -1.43125e-014
lhumerus -19.4355 7.66842 79.6978
lradius 23.8928
lwrist -26.9956
lhand -24.8748 29.3121
lfingers 7.12502
lthumb 1.63252 59.2856
rfemur -28.3792 4.85974 11.9981
rtibia 31.2426
rfoot -5.90601 0.895242
rtoes 15.3045
lfemur -86.0388 7.44645 -25.6807
ltibia 91.1206
lfoot 6.79207 -5.94191
ltoes -18.5847
1554
root -4.77806 18.183 0.755754 200.215 135.751 195.219
lowerback 13.9081 -0.930817 -0.458945
upperback 4.57996 -1.17243 0.26936
thorax -2.95493 -0.538171 0.726839
lowerneck -16.0834 4.4923 -8.58866
upperneck 39.7343 11.6637 -1.64134
head 16.8555 3.54608 2.98403
rclavicle -5.88403e-014 -2.22639e-014
rhumerus -30.8122 4.85322 -77.1462
rradius 54.0092
rwrist 14.3182
rhand -25.4674 3.27999
rfingers 7.12502
rthumb 1.06012 -26.6971
lclavicle -5.88403e-014 -2.22639e-014
lhumerus -19.5189 7.04674 79.9297
lradius 23.9456
lwrist -26.1448
lhand -24.1997 29.3512
lfingers 7.12502
lthumb 2.28454 59.3187
rfemur -28.4446 5.14571 11.1114
rtibia 31.7684
rfoot -6.36632 0.949867
rtoes 16.1156
lfemur -85.7985 7.42776 -25.6601
ltibia 90.1506
lfoot 6.82164 -6.06146
ltoes -20.6663
1555
root -4.72969 18.1548 0.724656 200.433 135.973 195.486
lowerback 13.9465 -1.09795 -0.0280699
upperback 4.58548 -1.32918 0.38135
thorax -2.97493 -0.61473 0.626577
lowerneck -16.2578 4.50277 -8.86962
upperneck 39.882 11.7906 -1.57563
head 16.9517 3.55004 3.0953
rclavicle 5.56597e-015 -7.95139e-015
rhumerus -30.8312 5.0213 -76.7836
rradius 53.8675
rwrist 14.3129
rhand -25.4924 3.29378
rfingers 7.12502
rthumb 1.03601 -26.6835
lclavicle 5.56597e-015 -7.95139e-015
lhumerus -19.6365 6.50153 80.2001
lradius 24.124
lwrist -25.5559
lhand -23.3609 29.8948
lfingers 7.12502
lthumb 3.09454 59.8521
rfemur -28.7527 5.18563 10.6407
rtibia 32.3252
rfoot -6.74373 1.19323
rtoes 16.8966
lfemur -85.8931 7.41526 -25.2458
ltibia 89.2977
lfoot 7.14956 -5.94874
ltoes -21.359
1556
root -4.67752 18.13 0.695165 200.64 136.151 195.686
lowerback 13.8699 -1.26712 0.554433
upperback 4.58511 -1.47115 0.455597
thorax -2.94549 -0.683849 0.396916
lowerneck -16.1831 4.51774 -8.83264
upperneck 39.8061 11.8554 -1.78162
head 16.9175 3.56043 3.00447
rclavicle -9.93923e-014 3.18055e-015
rhumerus -30.8349 5.03652 -76.4572
rradius 53.672
rwrist 14.3693
rhand -25.4203 3.30215
rfingers 7.12502
rthumb 1.10567 -26.6747
lclavicle -9.93923e-014 3.18055e-015
lhumerus -19.7326 6.15128 80.3638
lradius 24.1688
lwrist -25.3708
lhand -22.7653 30.3911
lfingers 7.12502
lthumb 3.66977 60.3393
rfemur -29.0961 5.19637 10.2261
rtibia 32.9484
rfoot -7.16128 1.46902
rtoes 17.2803
lfemur -85.9681 7.34506 -24.7152
ltibia 88.5001
lfoot 7.62786 -5.62818
ltoes -21.032
1557
root -4.62596 18.1073 0.667963 200.994 136.457 196.328
lowerback 13.8302 -1.37496 0.724613
upperback 4.67268 -1.58782 0.484718
thorax -2.83587 -0.740102 0.347919
lowerneck -15.9658 4.45816 -8.73043
upperneck 39.5431 11.8007 -2.15484
head 16.7757 3.5259 2.79655
rclavicle 5.40694e-014 -7.95139e-015
rhumerus -30.8455 5.00169 -76.0334
rradius 53.5548
rwrist 14.4466
rhand -25.3378 3.2717
rfingers 7.12502
rthumb 1.18531 -26.7048
lclavicle 5.40694e-014 -7.95139e-015
lhumerus -19.7696 5.84291 80.5939
lradius 24.1429
lwrist -25.2594
lhand -22.3092 30.2032
lfingers 7.12502
lthumb 4.1102 60.1433
rfemur -29.2934 5.25567 9.43496
rtibia 33.5926
rfoot -7.65736 1.75666
rtoes 17.2168
lfemur -85.689 7.27884 -24.5405
ltibia 87.7172
lfoot 7.84876 -5.43195
ltoes -20.6743
1558
root -4.58024 18.0814 0.63931 201.301 136.754 197.022
lowerback 14.0395 -1.51108 0.841561
upperback 4.66947 -1.74568 0.505828
thorax -2.95467 -0.817059 0.33473
lowerneck -15.7602 4.41715 -8.92856
upperneck 39.3932 11.7628 -2.20911
head 16.6411 3.49345 2.78294
rclavicle -3.26007e-014 3.18055e-014
rhumerus -31.0527 5.13445 -75.6579
rradius 53.5352
rwrist 14.4364
rhand -25.3155 3.19722
rfingers 7.12502
rthumb 1.2069 -26.7791
lclavicle -3.26007e-014 3.18055e-014
lhumerus -19.8969 5.20931 80.788
lradius 24.0853
lwrist -24.8459
lhand -22.034 29.8151
lfingers 7.12502
lthumb 4.37595 59.7499
rfemur -29.4427 5.36523 8.60837
rtibia 34.2712
rfoot -8.21038 1.98085
rtoes 16.6835
lfemur -85.333 7.24776 -24.3587
ltibia 87.0207
lfoot 7.88847 -5.42627
ltoes -19.9403
1559
root -4.53301 18.0536 0.611947 201.558 137.069 197.665
lowerback 14.3034 -1.67459 1.0452
upperback 4.61165 -1.92991 0.451998
thorax -3.16612 -0.907265 0.202413
lowerneck -15.579 4.45637 -9.01307
upperneck 39.3102 11.7962 -2.20407
head 16.5444 3.50899 2.79164
rclavicle -7.39479e-014 1.43125e-014
rhumerus -31.2635 5.3353 -75.4495
rradius 53.4184
rwrist 14.4294
rhand -25.363 3.03537
rfingers 7.12502
rthumb 1.16097 -26.9412
lclavicle -7.39479e-014 1.43125e-014
lhumerus -20.2226 4.16722 80.8886
lradius 24.1734
lwrist -24.1725
lhand -21.9554 29.5525
lfingers 7.12502
lthumb 4.45185 59.4857
rfemur -29.6002 5.53495 7.8254
rtibia 35.0616
rfoot -8.76841 2.16571
rtoes 15.0174
lfemur -84.9933 7.28462 -24.2014
ltibia 86.4491
lfoot 7.88837 -5.48697
ltoes -19.4144
